<?xml version="1.0" standalone="no"?>
<!DOCTYPE svg PUBLIC "-//W3C//DTD SVG 20010904//EN"
 "http://www.w3.org/TR/2001/REC-SVG-20010904/DTD/svg10.dtd">
<svg version="1.0" xmlns="http://www.w3.org/2000/svg"
 width="700.000000pt" height="700.000000pt" viewBox="0 0 700.000000 700.000000"
 preserveAspectRatio="xMidYMid meet">
<metadata>
Created by potrace 1.11, written by Peter Selinger 2001-2013
</metadata>
<g transform="translate(0.000000,700.000000) scale(0.100000,-0.100000)"
fill="#000000" stroke="none">
<path d="M3361 6974 c-228 -61 -392 -274 -392 -509 0 -44 16 -205 36 -359 20
-153 34 -283 33 -288 -2 -5 -41 127 -86 294 -46 167 -97 332 -114 368 -41 84
-151 196 -230 233 -82 39 -162 57 -248 57 -141 0 -254 -46 -361 -148 -156
-147 -207 -369 -131 -570 10 -26 91 -174 179 -329 89 -156 160 -283 158 -283
-1 0 -96 119 -210 265 -208 268 -261 322 -357 371 -199 101 -454 59 -612 -100
-199 -199 -210 -520 -26 -729 23 -26 159 -138 301 -248 235 -182 299 -235 237
-195 -119 74 -571 320 -620 337 -123 42 -284 27 -413 -38 -68 -35 -185 -154
-219 -224 -82 -170 -73 -378 24 -529 43 -67 137 -152 207 -187 32 -16 190 -65
351 -108 162 -44 288 -81 280 -83 -8 -1 -141 13 -297 33 -344 43 -412 39 -556
-33 -172 -86 -285 -273 -285 -472 0 -240 156 -445 389 -514 81 -24 185 -20
494 20 153 19 283 34 288 32 5 -2 -127 -40 -293 -86 -167 -46 -332 -97 -368
-114 -81 -39 -194 -150 -232 -228 -77 -156 -78 -332 -2 -489 35 -71 151 -189
223 -226 117 -59 233 -76 349 -51 94 20 124 34 440 214 144 83 262 149 262
147 0 -2 -119 -96 -265 -210 -267 -207 -322 -260 -370 -355 -101 -200 -60
-455 100 -615 197 -197 519 -209 727 -25 26 22 132 150 234 283 103 133 194
249 202 257 13 13 13 13 4 -5 -6 -11 -78 -138 -161 -283 -82 -145 -159 -291
-170 -325 -63 -192 -15 -394 128 -538 168 -168 417 -206 625 -96 79 42 183
146 220 220 16 33 69 201 118 375 48 175 86 299 83 277 -74 -594 -75 -599 -66
-680 33 -285 253 -485 531 -485 95 1 147 13 236 55 162 78 264 220 294 409 10
60 6 105 -30 388 -22 177 -39 325 -38 329 2 5 41 -129 88 -299 46 -169 98
-334 114 -367 38 -77 151 -190 228 -227 205 -100 435 -70 595 75 119 109 178
243 176 402 0 60 -7 110 -20 151 -16 47 -197 380 -346 634 -32 55 -13 32 208
-253 249 -322 302 -370 462 -411 238 -62 498 56 605 274 46 93 57 143 58 248
0 63 -6 102 -25 158 -50 149 -83 185 -400 432 -267 208 -290 227 -235 195 245
-144 563 -317 612 -334 136 -47 318 -23 443 59 108 70 178 162 221 289 23 69
26 90 22 178 -7 154 -54 259 -164 368 -78 77 -173 116 -483 199 -150 40 -265
74 -255 76 11 1 143 -13 294 -32 237 -31 286 -34 355 -26 139 16 242 64 330
154 279 285 168 753 -209 884 -99 34 -183 32 -522 -12 -155 -20 -288 -36 -295
-35 -13 0 51 19 449 130 202 57 263 87 350 172 101 98 152 222 152 367 0 156
-48 274 -153 380 -143 142 -343 191 -537 131 -55 -17 -97 -40 -472 -254 -93
-52 -168 -94 -168 -93 0 2 117 94 259 205 143 111 279 223 301 249 113 127
158 320 115 487 -47 181 -199 333 -380 380 -73 19 -203 19 -270 1 -72 -19
-163 -67 -218 -116 -27 -24 -138 -159 -249 -301 -110 -143 -202 -259 -203
-259 -2 0 71 131 162 292 92 160 174 317 184 350 61 193 12 388 -134 533 -107
107 -222 155 -372 155 -86 0 -157 -16 -235 -53 -87 -41 -195 -148 -238 -237
-17 -36 -67 -193 -109 -349 -43 -156 -79 -278 -81 -269 -1 8 13 140 33 295 30
239 34 291 25 355 -29 228 -181 407 -395 463 -73 19 -202 18 -274 -1z m606
-1156 c-3 -8 -6 -5 -6 6 -1 11 2 17 5 13 3 -3 4 -12 1 -19z m-2770 -1854 c-3
-3 -12 -4 -19 -1 -8 3 -5 6 6 6 11 1 17 -2 13 -5z"/>
</g>
</svg>
